<svg id="Layer_1" data-name="Layer 1" xmlns="http://www.w3.org/2000/svg" viewBox="0 0 1266 306"><title>Artboard 2</title><path d="M216.3,213.78q22.84-4.26,34.72-20.26t11.88-38.84q0-18.88-6.55-31.53a53.18,53.18,0,0,0-17.67-20.1,74.1,74.1,0,0,0-25.89-10.66,147.37,147.37,0,0,0-31.22-3.2H98.11V304.85h173Z"/><rect x="14.27" y="259.1" width="45.76" height="45.76"/><path d="M471.43,87.4a27,27,0,1,0,46.08-19,27,27,0,0,0-46.08,19Z"/><path d="M468.38,59.22a26,26,0,0,0,19-8,26,26,0,0,0,8-19,26,26,0,0,0-8-19,26.68,26.68,0,0,0-38.08,0,26,26,0,0,0-8,19,26,26,0,0,0,8,19A26,26,0,0,0,468.38,59.22Z"/><path d="M436.39,114.44a27.32,27.32,0,0,0,27-27,27,27,0,1,0-46.08,19A26,26,0,0,0,436.39,114.44Z"/><path d="M309.2,304.85q25.5,0,41.9-3.23a43.3,43.3,0,0,0,26.7-16.57q16.41,19.8,53.78,19.8a95.07,95.07,0,0,0,26.12-3.42q12-3.44,23.84-16.38a52.7,52.7,0,0,0,23.84,15.42q13.92,4.39,24.6,4.38a105.78,105.78,0,0,0,27.08-3.42q13-3.44,24-16.76,6.85,12.19,17.53,16.18a61.55,61.55,0,0,0,21,4h93.64V153.29H663.74V261.06H620.33q-18.66,0-24.37-6.09t-5.72-20.19V153.29h-49.5v88.35q0,12.18-6.43,15.8t-17,3.62q-13.6,0-19.46-6.48T492,234.78V170H442.48v72.74q0,11.43-7.75,14.85t-19.09,3.43q-13.62,0-20.24-7.05t-6.61-19.23V170H339.28v72.74a26.85,26.85,0,0,1-1.52,10.09,11,11,0,0,1-4.95,5.52,21.28,21.28,0,0,1-8.95,2.29q-5.53.38-13.9.38Z"/><path d="M653.46,114.44a27.32,27.32,0,0,0,27-27,27,27,0,1,0-46.08,19A26,26,0,0,0,653.46,114.44Z"/><path d="M715.53,60.37a27.3,27.3,0,0,0-27,27,27,27,0,1,0,46.08-19A26,26,0,0,0,715.53,60.37Z"/><path d="M904.8,114.44a27.32,27.32,0,0,0,27-27,27,27,0,1,0-46.08,19A26,26,0,0,0,904.8,114.44Z"/><path d="M1202.22,153.29V261.06h-23.61q-22.48,0-22.47-26.28V170h-49.51v72.74q0,11.43-7.81,14.85T1080,261.06q-14.09,0-20.75-7.05t-6.67-19.23V170h-48.74v72.74a26.85,26.85,0,0,1-1.52,10.09,11,11,0,0,1-4.95,5.52,21.32,21.32,0,0,1-9,2.29q-5.53.38-13.9.38H958.88q-18.28,0-23.61-6.09t-5.33-20.19V153.29H880.43V239q0,14.1-5.14,18.09t-18.09,4H827.11q-8.76,0-13.52-3.62t-4.76-16.95V33h-49.5v214.4q0,16.38,4.38,27.42a44,44,0,0,0,12.18,17.71A46.62,46.62,0,0,0,794.55,302a93.63,93.63,0,0,0,23.81,2.85H865.2q7.6,0,15.42-.57a82.56,82.56,0,0,0,15-2.47,50.36,50.36,0,0,0,13.71-5.91,37.55,37.55,0,0,0,11-10.47q6.86,12.19,17.13,15.81a63.78,63.78,0,0,0,21.32,3.61h14.86q25.5,0,41.89-3.23a43.24,43.24,0,0,0,26.65-16.57q5.71,7.24,18.85,13.52t32.56,6.28q6.09,0,12.76-.38a63.84,63.84,0,0,0,13.52-2.28,51.86,51.86,0,0,0,13.33-5.9,47.81,47.81,0,0,0,12.19-11.24,43.83,43.83,0,0,0,17.51,15q10.29,4.77,30.47,4.76h58.27V153.29Z"/></svg>