<svg id="Layer_1" data-name="Layer 1" xmlns="http://www.w3.org/2000/svg" viewBox="0 0 1366 282"><title>Artboard 1</title><path d="M144.74,85.81A37,37,0,0,0,127.62,74a61.62,61.62,0,0,0-20.45-3.82,53.85,53.85,0,0,0-11.63,1.33,44.82,44.82,0,0,0-11.31,4.15,24.55,24.55,0,0,0-8.64,7.49,18.9,18.9,0,0,0-3.33,11.3q0,10.64,8,16.29a75.48,75.48,0,0,0,20.11,9.64q12.14,4,26.1,8a107.77,107.77,0,0,1,26.1,11.3,61.84,61.84,0,0,1,20.11,19.62q8,12.3,8,32.91,0,19.62-7.31,34.24a69.5,69.5,0,0,1-19.78,24.27A84,84,0,0,1,124.62,265a126.79,126.79,0,0,1-34.74,4.66,126.14,126.14,0,0,1-42.55-7,106.62,106.62,0,0,1-36.57-22.61l36.9-40.56A53.76,53.76,0,0,0,67.78,216a57.35,57.35,0,0,0,25.1,5.82,56.62,56.62,0,0,0,12.79-1.5,41.6,41.6,0,0,0,11.64-4.49,25.05,25.05,0,0,0,8.31-7.64,19.06,19.06,0,0,0,3.16-11q0-10.63-8.14-16.79a75.79,75.79,0,0,0-20.45-10.47q-12.3-4.3-26.6-8.64A119.38,119.38,0,0,1,47,149.65a64.07,64.07,0,0,1-20.45-19.29q-8.14-12-8.14-31.58,0-18.94,7.48-33.24A72.08,72.08,0,0,1,45.83,41.6,86.69,86.69,0,0,1,74.59,27.14a117.83,117.83,0,0,1,33.58-4.82A131.9,131.9,0,0,1,146.73,28a89,89,0,0,1,33.58,19Z"/><path d="M212.89,102.1h47.87v22h.67a39.85,39.85,0,0,1,6.64-9.31,48.18,48.18,0,0,1,10.31-8.31,58.75,58.75,0,0,1,13.63-6,56.92,56.92,0,0,1,16.62-2.32q19,0,30.59,5.81a44.36,44.36,0,0,1,18.12,16.13,65.4,65.4,0,0,1,8.81,24.26,185.7,185.7,0,0,1,2.32,30.26v89.09H318.6V184.55q0-7-.49-14.46a46,46,0,0,0-3-13.8,24,24,0,0,0-7.65-10.3q-5.16-4-14.8-4t-15.62,3.49a23.76,23.76,0,0,0-9.14,9.31,38.11,38.11,0,0,0-4.16,13.13,114,114,0,0,0-1,15.29v80.45H212.89Z"/><path d="M505.11,243.4h-.67A46.85,46.85,0,0,1,482.33,262a77.32,77.32,0,0,1-50.86,2.5A55.08,55.08,0,0,1,413,255a45.81,45.81,0,0,1-12.64-15.63,47.7,47.7,0,0,1-4.65-21.6q0-14,5.15-23.61a46.27,46.27,0,0,1,14-16,69.31,69.31,0,0,1,20.11-9.8,147.46,147.46,0,0,1,23.44-5.16,225.33,225.33,0,0,1,24.27-2q12.13-.33,22.44-.33,0-13.29-9.48-21.11A34.13,34.13,0,0,0,473.19,132a48.75,48.75,0,0,0-22.44,5.15,61.3,61.3,0,0,0-18.12,14.13L406,124.05a91.33,91.33,0,0,1,32.58-19.45,116.44,116.44,0,0,1,38.56-6.48q21.94,0,36.07,5.48a52.49,52.49,0,0,1,22.61,16.12q8.48,10.65,11.8,26.1A171.71,171.71,0,0,1,551,181.56v82.11H505.11Zm-12.3-50.54c-3.78,0-8.48.17-14.13.5a71.48,71.48,0,0,0-16.29,2.83,36.21,36.21,0,0,0-13.3,7q-5.49,4.65-5.49,13,0,9,7.65,13.3a32,32,0,0,0,16,4.32,50.1,50.1,0,0,0,14.13-2,42.15,42.15,0,0,0,12.13-5.65A27.44,27.44,0,0,0,502,216.8a26.89,26.89,0,0,0,3.16-13.3V192.86Z"/><path d="M692.27,142H648.39v53.85a102.16,102.16,0,0,0,.66,12.14,24.32,24.32,0,0,0,3,9.48,15.09,15.09,0,0,0,7.14,6.14q4.81,2.17,12.8,2.17a85.25,85.25,0,0,0,10.47-.84c4.33-.55,7.59-1.83,9.81-3.82v41.56a75.91,75.91,0,0,1-17.29,4,160.51,160.51,0,0,1-17.62,1A96,96,0,0,1,634.09,265a53,53,0,0,1-18.62-8.47A39.74,39.74,0,0,1,603,241.4q-4.49-9.3-4.49-22.61V142H566.61V102.1h31.91V54.23h49.87V102.1h43.88Z"/><path d="M826.91,154.3a28,28,0,0,0-10.3-8.81,30.3,30.3,0,0,0-14.3-3.49q-18.94,0-29.42,11.3t-10.47,29.59q0,18.29,10.47,29.59t29.42,11.3a26.89,26.89,0,0,0,14.3-3.66,43.63,43.63,0,0,0,10.3-8.64l32.92,34.57a63.61,63.61,0,0,1-27.43,16.79,103.22,103.22,0,0,1-30.09,4.82,101.76,101.76,0,0,1-35.07-6,84.25,84.25,0,0,1-28.59-17.12,80.21,80.21,0,0,1-19.12-26.76,84.72,84.72,0,0,1-7-34.91,84.75,84.75,0,0,1,7-34.91,80.41,80.41,0,0,1,19.12-26.76,84.41,84.41,0,0,1,28.59-17.12,101.76,101.76,0,0,1,35.07-6,103.53,103.53,0,0,1,30.09,4.81,63.71,63.71,0,0,1,27.43,16.79Z"/><path d="M927.65,12.34V124.05h.66a29.88,29.88,0,0,1,5.65-9.31,44,44,0,0,1,9.64-8.31,52.4,52.4,0,0,1,13.3-6,56.92,56.92,0,0,1,16.62-2.32q19,0,30.59,5.81a44.36,44.36,0,0,1,18.12,16.13,65.4,65.4,0,0,1,8.81,24.26,185.7,185.7,0,0,1,2.32,30.26v89.09H983.49V184.55q0-7-.49-14.46a46,46,0,0,0-3-13.8,24,24,0,0,0-7.65-10.3q-5.16-4-14.8-4t-15.62,3.49a23.76,23.76,0,0,0-9.14,9.31,38.11,38.11,0,0,0-4.16,13.13,114,114,0,0,0-1,15.29v80.45H877.78V12.34Z"/><path d="M1203.91,164.27q24.93-4.65,37.9-22.1t13-42.39q0-20.61-7.14-34.41a58,58,0,0,0-19.29-21.94,80.91,80.91,0,0,0-28.26-11.64A160.48,160.48,0,0,0,1166,28.3h-91.1V263.67h188.84Z"/><rect x="1305.3" y="213.73" width="49.94" height="49.94"/></svg>